<svg width="1200" height="630" viewBox="0 0 1200 630" fill="none" xmlns="http://www.w3.org/2000/svg">
  <defs>
    <linearGradient id="bg" x1="0" y1="0" x2="1" y2="1">
      <stop offset="0" stop-color="#0B0F16" />
      <stop offset="1" stop-color="#182436" />
    </linearGradient>
    <linearGradient id="accent" x1="0" y1="0" x2="1" y2="1">
      <stop offset="0" stop-color="#7EF5D2" />
      <stop offset="1" stop-color="#8AB6FF" />
    </linearGradient>
  </defs>
  <rect width="1200" height="630" fill="url(#bg)" />

  <rect x="70" y="46" width="1060" height="64" rx="32" fill="#101726" stroke="#1E2A3D" />
  <rect x="96" y="62" width="108" height="32" rx="16" fill="#1E2A3D" />
  <text x="120" y="84" fill="#E6EDF7" font-size="18" font-family="Inter, system-ui, sans-serif">HomeDock</text>
  <rect x="980" y="62" width="124" height="32" rx="16" fill="url(#accent)" />
  <text x="1010" y="84" fill="#0B0F16" font-size="16" font-family="Inter, system-ui, sans-serif">Dashboard</text>

  <text x="80" y="170" fill="#E6EDF7" font-size="44" font-family="Inter, system-ui, sans-serif" font-weight="600">HomeDock Main Dashboard</text>
  <text x="80" y="210" fill="#A8B5C9" font-size="22" font-family="Inter, system-ui, sans-serif">Ports, subdomains, and tools organized in one view.</text>

  <rect x="80" y="250" width="500" height="180" rx="24" fill="#121B29" stroke="#1E2A3D" />
  <text x="110" y="290" fill="#E6EDF7" font-size="20" font-family="Inter, system-ui, sans-serif">System Summary</text>
  <rect x="110" y="310" width="460" height="6" rx="3" fill="#1E2A3D" />
  <text x="110" y="350" fill="#A8B5C9" font-size="18" font-family="Inter, system-ui, sans-serif">Active Services</text>
  <text x="520" y="350" fill="#E6EDF7" font-size="18" font-family="Inter, system-ui, sans-serif" text-anchor="end">28</text>
  <text x="110" y="382" fill="#A8B5C9" font-size="18" font-family="Inter, system-ui, sans-serif">Auth Status</text>
  <text x="520" y="382" fill="#E6EDF7" font-size="18" font-family="Inter, system-ui, sans-serif" text-anchor="end">Signed in</text>
  <text x="110" y="414" fill="#A8B5C9" font-size="18" font-family="Inter, system-ui, sans-serif">Last Sync</text>
  <text x="520" y="414" fill="#E6EDF7" font-size="18" font-family="Inter, system-ui, sans-serif" text-anchor="end">09:48</text>

  <rect x="620" y="250" width="500" height="180" rx="24" fill="#121B29" stroke="#1E2A3D" />
  <text x="650" y="290" fill="#E6EDF7" font-size="20" font-family="Inter, system-ui, sans-serif">Today&apos;s Weather</text>
  <circle cx="680" cy="350" r="36" fill="#1E2A3D" />
  <text x="670" y="358" fill="#E6EDF7" font-size="28" font-family="Inter, system-ui, sans-serif">22°</text>
  <text x="730" y="342" fill="#E6EDF7" font-size="18" font-family="Inter, system-ui, sans-serif">Clear</text>
  <text x="730" y="370" fill="#A8B5C9" font-size="16" font-family="Inter, system-ui, sans-serif">Seoul · 06:52 / 19:38</text>
  <rect x="650" y="392" width="430" height="6" rx="3" fill="#1E2A3D" />

  <rect x="80" y="470" width="340" height="120" rx="24" fill="#121B29" stroke="#1E2A3D" />
  <rect x="430" y="470" width="340" height="120" rx="24" fill="#121B29" stroke="#1E2A3D" />
  <rect x="780" y="470" width="340" height="120" rx="24" fill="#121B29" stroke="#1E2A3D" />
  <text x="110" y="522" fill="#E6EDF7" font-size="18" font-family="Inter, system-ui, sans-serif">Media Zone</text>
  <text x="460" y="522" fill="#E6EDF7" font-size="18" font-family="Inter, system-ui, sans-serif">Infra Control</text>
  <text x="810" y="522" fill="#E6EDF7" font-size="18" font-family="Inter, system-ui, sans-serif">Storage Vault</text>
</svg>
